<mxfile host="app.diagrams.net" modified="2023-09-12T08:14:48.980Z" agent="Mozilla/5.0 (Windows NT 10.0; Win64; x64) AppleWebKit/537.36 (KHTML, like Gecko) Chrome/116.0.0.0 Safari/537.36" etag="k6pptrGWgvl2SYc_iyHh" version="21.1.8" type="device">
  <diagram name="Страница 1" id="zBfvXedkt9pUzdJTE80D">
    <mxGraphModel dx="1062" dy="556" grid="1" gridSize="10" guides="1" tooltips="1" connect="1" arrows="1" fold="1" page="1" pageScale="1" pageWidth="827" pageHeight="1169" math="0" shadow="0">
      <root>
        <mxCell id="0" />
        <mxCell id="1" parent="0" />
        <mxCell id="kKuL9kdaWaXKRzUc_D3l-11" value="&amp;lt;&amp;lt;Interface&amp;gt;&amp;gt;&lt;br&gt;IDanceBehavior" style="swimlane;fontStyle=0;childLayout=stackLayout;horizontal=1;startSize=40;fillColor=none;horizontalStack=0;resizeParent=1;resizeParentMax=0;resizeLast=0;collapsible=1;marginBottom=0;whiteSpace=wrap;html=1;" vertex="1" parent="1">
          <mxGeometry x="440" y="210" width="180" height="66" as="geometry" />
        </mxCell>
        <mxCell id="kKuL9kdaWaXKRzUc_D3l-12" value="+ Dance()" style="text;strokeColor=none;fillColor=none;align=left;verticalAlign=top;spacingLeft=4;spacingRight=4;overflow=hidden;rotatable=0;points=[[0,0.5],[1,0.5]];portConstraint=eastwest;whiteSpace=wrap;html=1;" vertex="1" parent="kKuL9kdaWaXKRzUc_D3l-11">
          <mxGeometry y="40" width="180" height="26" as="geometry" />
        </mxCell>
        <mxCell id="kKuL9kdaWaXKRzUc_D3l-15" value="DanceMinuetBehavior" style="swimlane;fontStyle=0;childLayout=stackLayout;horizontal=1;startSize=26;fillColor=none;horizontalStack=0;resizeParent=1;resizeParentMax=0;resizeLast=0;collapsible=1;marginBottom=0;whiteSpace=wrap;html=1;" vertex="1" parent="1">
          <mxGeometry x="310" y="320" width="180" height="52" as="geometry" />
        </mxCell>
        <mxCell id="kKuL9kdaWaXKRzUc_D3l-16" value="+ Dance(){/* танцуем менуэт*/}" style="text;strokeColor=none;fillColor=none;align=left;verticalAlign=top;spacingLeft=4;spacingRight=4;overflow=hidden;rotatable=0;points=[[0,0.5],[1,0.5]];portConstraint=eastwest;whiteSpace=wrap;html=1;" vertex="1" parent="kKuL9kdaWaXKRzUc_D3l-15">
          <mxGeometry y="26" width="180" height="26" as="geometry" />
        </mxCell>
        <mxCell id="kKuL9kdaWaXKRzUc_D3l-19" value="DanceNoWayBehavior" style="swimlane;fontStyle=0;childLayout=stackLayout;horizontal=1;startSize=26;fillColor=none;horizontalStack=0;resizeParent=1;resizeParentMax=0;resizeLast=0;collapsible=1;marginBottom=0;whiteSpace=wrap;html=1;" vertex="1" parent="1">
          <mxGeometry x="520" y="372" width="160" height="52" as="geometry" />
        </mxCell>
        <mxCell id="kKuL9kdaWaXKRzUc_D3l-23" value="DanceWaltzBehavior" style="swimlane;fontStyle=0;childLayout=stackLayout;horizontal=1;startSize=26;fillColor=none;horizontalStack=0;resizeParent=1;resizeParentMax=0;resizeLast=0;collapsible=1;marginBottom=0;whiteSpace=wrap;html=1;" vertex="1" parent="1">
          <mxGeometry x="690" y="320" width="180" height="52" as="geometry" />
        </mxCell>
        <mxCell id="kKuL9kdaWaXKRzUc_D3l-24" value="+ Dance(){/* танцуем вальс*/}" style="text;strokeColor=none;fillColor=none;align=left;verticalAlign=top;spacingLeft=4;spacingRight=4;overflow=hidden;rotatable=0;points=[[0,0.5],[1,0.5]];portConstraint=eastwest;whiteSpace=wrap;html=1;" vertex="1" parent="kKuL9kdaWaXKRzUc_D3l-23">
          <mxGeometry y="26" width="180" height="26" as="geometry" />
        </mxCell>
        <mxCell id="kKuL9kdaWaXKRzUc_D3l-27" value="" style="endArrow=block;dashed=1;endFill=0;endSize=12;html=1;rounded=0;exitX=0.5;exitY=0;exitDx=0;exitDy=0;entryX=-0.011;entryY=0;entryDx=0;entryDy=0;entryPerimeter=0;" edge="1" parent="1" source="kKuL9kdaWaXKRzUc_D3l-15" target="kKuL9kdaWaXKRzUc_D3l-12">
          <mxGeometry width="160" relative="1" as="geometry">
            <mxPoint x="330" y="390" as="sourcePoint" />
            <mxPoint x="414" y="250" as="targetPoint" />
            <Array as="points">
              <mxPoint x="400" y="250" />
            </Array>
          </mxGeometry>
        </mxCell>
        <mxCell id="kKuL9kdaWaXKRzUc_D3l-28" value="" style="endArrow=block;dashed=1;endFill=0;endSize=12;html=1;rounded=0;exitX=0.5;exitY=0;exitDx=0;exitDy=0;entryX=0.561;entryY=1.154;entryDx=0;entryDy=0;entryPerimeter=0;" edge="1" parent="1" source="kKuL9kdaWaXKRzUc_D3l-19" target="kKuL9kdaWaXKRzUc_D3l-12">
          <mxGeometry width="160" relative="1" as="geometry">
            <mxPoint x="330" y="390" as="sourcePoint" />
            <mxPoint x="530" y="290" as="targetPoint" />
            <Array as="points">
              <mxPoint x="600" y="340" />
              <mxPoint x="540" y="340" />
            </Array>
          </mxGeometry>
        </mxCell>
        <mxCell id="kKuL9kdaWaXKRzUc_D3l-29" value="" style="endArrow=block;dashed=1;endFill=0;endSize=12;html=1;rounded=0;entryX=1.002;entryY=0.456;entryDx=0;entryDy=0;exitX=0.394;exitY=-0.077;exitDx=0;exitDy=0;exitPerimeter=0;entryPerimeter=0;" edge="1" parent="1" source="kKuL9kdaWaXKRzUc_D3l-23" target="kKuL9kdaWaXKRzUc_D3l-11">
          <mxGeometry width="160" relative="1" as="geometry">
            <mxPoint x="760" y="235" as="sourcePoint" />
            <mxPoint x="490" y="390" as="targetPoint" />
            <Array as="points">
              <mxPoint x="761" y="240" />
            </Array>
          </mxGeometry>
        </mxCell>
        <mxCell id="kKuL9kdaWaXKRzUc_D3l-30" value="Duck" style="swimlane;fontStyle=0;childLayout=stackLayout;horizontal=1;startSize=26;fillColor=none;horizontalStack=0;resizeParent=1;resizeParentMax=0;resizeLast=0;collapsible=1;marginBottom=0;whiteSpace=wrap;html=1;" vertex="1" parent="1">
          <mxGeometry x="120" y="120" width="140" height="100" as="geometry" />
        </mxCell>
        <mxCell id="kKuL9kdaWaXKRzUc_D3l-32" value="+ Dance()" style="text;strokeColor=none;fillColor=none;align=left;verticalAlign=top;spacingLeft=4;spacingRight=4;overflow=hidden;rotatable=0;points=[[0,0.5],[1,0.5]];portConstraint=eastwest;whiteSpace=wrap;html=1;" vertex="1" parent="kKuL9kdaWaXKRzUc_D3l-30">
          <mxGeometry y="26" width="140" height="26" as="geometry" />
        </mxCell>
        <mxCell id="kKuL9kdaWaXKRzUc_D3l-39" value="- m_danceBehavior: std::unique_ptr" style="text;strokeColor=none;fillColor=none;align=left;verticalAlign=top;spacingLeft=4;spacingRight=4;overflow=hidden;rotatable=0;points=[[0,0.5],[1,0.5]];portConstraint=eastwest;whiteSpace=wrap;html=1;" vertex="1" parent="kKuL9kdaWaXKRzUc_D3l-30">
          <mxGeometry y="52" width="140" height="48" as="geometry" />
        </mxCell>
        <mxCell id="kKuL9kdaWaXKRzUc_D3l-20" value="+ Dance(){/* пусто */}" style="text;strokeColor=none;fillColor=none;align=left;verticalAlign=top;spacingLeft=4;spacingRight=4;overflow=hidden;rotatable=0;points=[[0,0.5],[1,0.5]];portConstraint=eastwest;whiteSpace=wrap;html=1;" vertex="1" parent="1">
          <mxGeometry x="530" y="398" width="150" height="26" as="geometry" />
        </mxCell>
        <mxCell id="kKuL9kdaWaXKRzUc_D3l-35" value="" style="endArrow=diamondThin;endFill=1;endSize=24;html=1;rounded=0;exitX=0;exitY=0;exitDx=0;exitDy=0;" edge="1" parent="1" source="kKuL9kdaWaXKRzUc_D3l-11" target="kKuL9kdaWaXKRzUc_D3l-30">
          <mxGeometry width="160" relative="1" as="geometry">
            <mxPoint x="330" y="320" as="sourcePoint" />
            <mxPoint x="260" y="150" as="targetPoint" />
          </mxGeometry>
        </mxCell>
        <mxCell id="kKuL9kdaWaXKRzUc_D3l-40" value="Использовать агрегацию или композицию в утке и почему?" style="strokeWidth=1;shadow=0;dashed=0;align=center;html=1;shape=mxgraph.mockup.text.stickyNote2;fontColor=#666666;mainText=;fontSize=17;whiteSpace=wrap;fillColor=#ffffcc;strokeColor=#F62E00;" vertex="1" parent="1">
          <mxGeometry x="840" y="120" width="200" height="200" as="geometry" />
        </mxCell>
        <mxCell id="kKuL9kdaWaXKRzUc_D3l-41" value="Как должны называться метод Dance в утке и стратегии танца и почему?&lt;br&gt;Что насчет их параметров? Они должны быть одинаеовыми? Если нет, то привести примеры" style="strokeWidth=1;shadow=0;dashed=0;align=center;html=1;shape=mxgraph.mockup.text.stickyNote2;fontColor=#666666;mainText=;fontSize=17;whiteSpace=wrap;fillColor=#ffffcc;strokeColor=#F62E00;" vertex="1" parent="1">
          <mxGeometry x="30" y="360" width="200" height="200" as="geometry" />
        </mxCell>
      </root>
    </mxGraphModel>
  </diagram>
</mxfile>
